<?xml version="1.0" encoding="UTF-8"?><svg id="Layer_2" xmlns="http://www.w3.org/2000/svg" viewBox="0 0 1028.42 1032.62"><defs><style>.cls-1{fill:#e8c47c;}.cls-2{fill:#3d4e3a;stroke:#000;stroke-miterlimit:10;}</style></defs><g id="Layer_1-2"><rect class="cls-2" x=".5" y=".5" width="1027.42" height="1031.62"/><path class="cls-1" d="M512.49,615.73c21.21,14.39,46.85,21.81,72.41,21.81,25.42-.34,50.55-12.06,67.49-30.91,8.5-9.5,14.02-21.23,17.39-33.45,2.41-9.01,4.14-18.78,1.29-27.81-1.33-4.69-4.95-7.77-7.94-11.45-3.04-4-5.04-8.82-5.28-13.91-.13-3.23.43-6.35-.07-9.47-.45-2.91-1.52-5.91-3.33-8.24-1.78-2.3-4.63-4-6.88-6.6-3.32-3.88-5.45-8.62-6.16-13.64-.47-3.16.07-6.49-.45-9.52-.86-4.33-4.02-8.04-8.04-9.85-4.57-1.89-9.61-3.77-12.26-8.36-.93-1.44-1.68-3.05-2.11-4.76-.87-3.21-.25-6.59-.68-9.7-.4-2.84-1.96-5.59-4.02-7.54-2.04-1.96-5.11-2.74-8.15-4.19-4.59-2.16-8.45-5.53-11.51-9.53-1.97-2.55-3.11-5.78-4.82-8.36-2.58-3.64-6.49-6.4-10.75-7.74-1.45-.46-3.04-.79-4.7-1.45-3.34-1.38-5.89-4.18-7.32-7.46-1.84-4.53-1.26-9.73-3.29-13.97-2.42-5.64-7.18-9.89-12.61-12.68-1.46-.8-2.95-1.36-4.39-2.35-9.96-7.6-15.14-27.71-18.48-39.52-9.38-37.41-14.08-75.75-17.85-114.07,0,0,2.77-.17,2.77-.17.87,33.76,1.17,67.49,1.42,101.23.55,97.47-.35,205.62-1.7,303.64h0ZM512.49,615.73c.12-94.15.07-210-.86-303.62-.32-33.73-.69-67.47-1.63-101.16,0,0,2.77-.17,2.77-.17,3.47,34.11,13.04,122.97,32.08,148.4,1.98,2.63,4.23,3.77,7.23,5.23,5.92,3.06,11.23,7.86,13.88,14.12,2.78,5.63.96,12.91,5.63,17.56,2.11,2.41,4.85,2.87,7.89,3.78,3.24.97,6.23,2.81,8.78,5.02,3.97,3.12,5.38,8.21,8.17,12.13,2.75,3.62,6.35,6.76,10.47,8.7,2.92,1.4,6.3,2.28,8.8,4.65,2.56,2.45,4.33,5.63,4.84,9.13.48,3.24-.19,6.39.61,9.43.71,2.77,2.43,5.44,4.64,7.27,3.43,2.83,9.11,3.6,12.6,6.98,2.56,2.39,4.48,5.44,5.13,8.91.69,4.82-.35,9.5,1.5,14.06,1.02,2.88,2.49,5.64,4.45,7.9,2.07,2.43,4.89,4.11,6.92,6.74,3.09,4.09,4.25,9.4,3.93,14.42-.45,4.7,0,9.21,2.18,13.47,1.98,4.44,5.99,7.32,8.53,11.44,5.82,10.23,3.53,22.85.63,33.58-3.52,12.44-9.27,24.4-18,34.04-17.34,19.11-42.95,30.64-68.73,30.7-25.65-.3-51.33-8.04-72.42-22.71h0Z"/><path class="cls-1" d="M515.16,821.05V269.33c0-3.86-6-3.87-6,0v551.73c0,3.86,6,3.87,6,0h0Z"/><path class="cls-1" d="M512.42,380.89c7.92,2.83,16.4,4.93,24.85,3.65s15.18-6.23,21.72-11.04c1.15-.85.03-2.8-1.14-1.94-6.25,4.61-12.89,9.46-20.73,10.75s-16.46-.85-24.1-3.58c-1.37-.49-1.95,1.69-.6,2.17h0Z"/><path class="cls-1" d="M533.9,384.76c4.92,6.92,11.41,12.64,18.59,17.13s15.62,8.01,24.18,9.7c4.6.91,9.31,1.31,14,1.06.48-.03.48-.78,0-.75-8.36.46-16.75-1.17-24.56-4.1s-15.68-7.49-22.19-13.16c-3.5-3.05-6.68-6.47-9.37-10.25-.28-.39-.93-.02-.65.38h0Z"/><path class="cls-1" d="M511.77,440.08c13.67,5.41,28.11,9.11,42.85,9.72,13.27.54,26.53-1.74,38.76-6.96,6.72-2.87,13.02-6.64,18.64-11.33,1.11-.93-.49-2.51-1.59-1.59-9.73,8.12-21.71,13.34-34.06,15.92-13.46,2.82-27.43,2.11-40.81-.77-7.92-1.71-15.65-4.17-23.18-7.15-1.35-.53-1.93,1.64-.6,2.17h0Z"/><path class="cls-1" d="M512.48,490.58c9.72,17.68,31.4,21.16,49.6,22.98,10.68,1.07,21.51,1.67,32.15-.16,8.9-1.53,17.72-4.09,25.95-7.82,9-4.08,17.24-9.84,23.66-17.4.93-1.1-.65-2.7-1.59-1.59-11.28,13.29-27.75,20.25-44.46,23.83-10.14,2.17-20.38,2.19-30.68,1.35s-20.54-1.79-30.23-5.05c-9.12-3.07-17.73-8.67-22.46-17.27-.7-1.27-2.64-.14-1.94,1.14h0Z"/><path class="cls-1" d="M513.64,497.1c3.3,5.33,4.9,11.46,4.63,17.72l1.92-.8c-3.72-3.94-5.52-9.28-5.06-14.67l-2.21.3c3.13,7.97-2.61,17.6,2.88,24.91.38.51.95.71,1.54.4,2.12-1.1,1.55-3.86,1.36-5.79-.3-3.03-.59-6.07-.89-9.1l-1.92.8c1.51,1.62.76,4.26.97,6.26.2,1.86.91,3.78,2.72,4.62.78.36,1.65-.07,1.69-.97.27-5.64-.1-11.28-1.06-16.85l-1.88,1.09c5.27,5.79,5.52,15.06.81,21.25h1.94c-1.75-2.99-1.32-6.58-.99-9.88.38-3.92.76-7.84,1.15-11.76l-1.92.8c2.4,2.39,3.44,5.83,2.71,9.14l2.06-.27c-.97-1.98-1.77-4.02-2.4-6.13-.14-.47-1.55-6.2-1.27-6.23.53-.06,1.29,2.04,1.44,2.44.37.94.65,1.91.88,2.88.52,2.14.92,4.36,1.15,6.55.41,3.87.13,8.14-2.63,11.14-.92,1-3.23,2.9-4.72,2.15-1.22-.62-.92-2.88-.75-3.94h-2.17c.24,1.34.49,2.68.73,4.01.26,1.42,2.43.82,2.17-.6-.24-1.34-.49-2.68-.73-4.01-.19-1.06-1.99-1.09-2.17,0-.5,3.13.17,7.62,4.42,6.82,3.87-.73,6.61-4.36,7.65-7.95,1.3-4.49.39-9.45-.58-13.92-.46-2.1-1.05-4.44-2.29-6.23-.95-1.37-3.08-2.42-4.25-.68-.6.9-.37,2.03-.21,3.03.22,1.36.5,2.71.86,4.04.71,2.68,1.72,5.27,2.94,7.77.42.86,1.85.65,2.06-.27.91-4.09-.31-8.36-3.29-11.33-.74-.74-1.83-.14-1.92.8-.41,4.22-.84,8.44-1.23,12.66-.32,3.45-.42,7.03,1.39,10.12.47.8,1.45.65,1.94,0,5.34-7.01,4.73-17.5-1.16-23.97-.82-.91-2.05.08-1.88,1.09.92,5.37,1.24,10.81.98,16.25l1.69-.97c-1.86-.85-1.67-3.28-1.65-5,.03-2.01-.16-3.99-1.59-5.52-.63-.67-2.02-.19-1.92.8.23,2.4.47,4.79.7,7.19.11,1.12.22,2.24.33,3.35.06.69.37,2.02-.39,2.41l1.54.4c-2.59-3.46-2.27-7.8-1.92-11.88s.84-8.5-.73-12.49c-.46-1.18-2.1-1.01-2.21.3-.51,5.97,1.62,11.91,5.72,16.26.7.74,1.88.14,1.92-.8.29-6.63-1.44-13.22-4.93-18.86-.76-1.23-2.71-.1-1.94,1.14h0Z"/><path class="cls-1" d="M513.81,443.5c3.72,1.68,4.6,6.08,4.42,9.78-.11,2.34-.53,4.66-.7,7s.06,4.79.56,7.17c.87,4.14,2.06,8.07,1.76,12.35-.27,3.83-1.65,7.54-4.67,10.03l1.88.5c-1.35-5.61-1.35-11.41,0-17.02l-2.06.27c1.13,2.59,1.96,5.29,2.54,8.05l2.17-.6c-2.62-11.26-5.32-22.9-3.59-34.51l-1.38.79c1.22.25,1.55,1.53,1.75,2.61.31,1.64.29,3.37.41,5.04.26,3.78.53,7.56.79,11.35s.57,7.34.76,11.01c.15,2.89.15,6.16-1.89,8.44-.96,1.08.63,2.67,1.59,1.59,2.29-2.57,2.69-5.95,2.58-9.26-.14-4.26-.56-8.52-.86-12.76s-.62-8.88-.93-13.32c-.18-2.56-.52-6.23-3.61-6.86-.54-.11-1.29.15-1.38.79-1.79,12.05.86,24.01,3.59,35.71.33,1.42,2.46.81,2.17-.6-.62-2.96-1.56-5.81-2.76-8.59-.39-.9-1.84-.61-2.06.27-1.44,6-1.44,12.21,0,18.21.21.89,1.26,1.01,1.88.5,5.09-4.22,5.97-11.36,5.04-17.53-.62-4.1-2.19-8.01-2.1-12.21.08-3.95,1.19-7.86.63-11.82-.48-3.39-2.14-6.84-5.4-8.3-1.31-.59-2.46,1.35-1.14,1.94h0Z"/><path class="cls-1" d="M513.18,384.85c3.85,8.82,8.01,18.46,6.74,28.32-1.13,8.75-6.93,16.58-5.88,25.65l2.21-.3c-1.12-3.59-.76-7.34-.26-11.01.53-3.88,1.02-7.75,1.35-11.66.66-7.95.77-15.94.36-23.91l-2.21.3c2.41,6.09,3.23,12.61,2.43,19.11-.18,1.43,2.07,1.42,2.25,0,.83-6.67-.04-13.46-2.51-19.71-.43-1.09-2.28-1.07-2.21.3.42,8.13.3,16.29-.4,24.4-.34,3.94-.88,7.85-1.39,11.77-.48,3.68-.69,7.41.42,11,.36,1.15,2.36,1.02,2.21-.3-.84-7.22,2.89-13.78,4.82-20.51,2.12-7.4,1.26-14.91-1.06-22.15-1.36-4.25-3.13-8.36-4.92-12.45-.58-1.32-2.52-.18-1.94,1.14h0Z"/><path class="cls-1" d="M512.81,341c2.34,1.59,2.48,5.21,2.79,7.73.41,3.39.62,6.8.65,10.22.06,6.97-.69,13.92-2.2,20.73-.31,1.41,1.86,2.01,2.17.6,1.66-7.46,2.44-15.11,2.26-22.76-.09-3.75-.41-7.5-.95-11.21-.4-2.78-1.13-5.59-3.58-7.25-1.2-.82-2.33,1.13-1.14,1.94h0Z"/><path class="cls-1" d="M512.65,350.73c1.03,6.11,2.06,12.22,3.09,18.33.24,1.42,2.41.82,2.17-.6-1.03-6.11-2.06-12.22-3.09-18.33-.24-1.42-2.41-.82-2.17.6h0Z"/><path class="cls-1" d="M541.87,509.51c9.97-.24,19.1-5.65,25.39-13.18,3.3-3.95,5.82-8.48,7.5-13.34,1.82-5.27,2.73-10.83,3.05-16.39.37-6.35-.03-12.72-.95-19-.07-.48-.79-.27-.72.2,1.57,10.83,1.71,22.26-1.41,32.83-2.84,9.59-8.92,18.2-17.52,23.45-4.63,2.83-9.9,4.55-15.34,4.68-.48.01-.48.76,0,.75h0Z"/><path class="cls-1" d="M574.21,484.83c8.97-1.63,17.9-3.58,26.74-5.83,4.45-1.13,8.88-2.35,13.27-3.69,3.82-1.17,7.73-2.31,11.33-4.08s7.13-4.46,8.2-8.56c.12-.47-.6-.67-.72-.2-.97,3.7-4.03,6.15-7.3,7.83-3.48,1.8-7.3,2.92-11.03,4.07-8.69,2.68-17.54,4.89-26.42,6.85-4.74,1.04-9.49,2.01-14.27,2.87-.47.09-.27.81.2.72h0Z"/><path class="cls-1" d="M512.79,562.71c16.28,14.55,38.83,19.54,59.89,22.3,21.76,2.86,44.22,2.5,65.55-2.99,11.84-3.05,23.26-7.75,33.65-14.21,1.23-.76.1-2.71-1.14-1.94-18.25,11.34-39.42,16.93-60.74,18.29-10.77.69-21.59.35-32.32-.8s-21.31-2.98-31.61-5.92c-11.51-3.29-22.69-8.27-31.69-16.32-1.08-.96-2.67.62-1.59,1.59h0Z"/><path class="cls-1" d="M515.46,530.51c5.13,7.29,13.24,11.39,21.61,13.83,10.23,2.98,21.04,4.09,31.62,4.94,11.34.92,22.76,1.73,34.14,1.87,10.73.12,21.61-.65,31.93-3.8,10.01-3.06,19.47-8.3,26.46-16.19.96-1.08-.63-2.68-1.59-1.59-13.14,14.86-33.65,19.11-52.65,19.34-10.98.13-21.98-.71-32.92-1.46-10.76-.75-21.61-1.71-32.13-4.16-9.22-2.14-18.88-5.88-24.53-13.91-.83-1.17-2.78-.05-1.94,1.14h0Z"/><path class="cls-1" d="M592.73,513.15c3.72,6.76,8.91,12.66,14.95,17.43s12.99,8.49,20.37,10.79c4.1,1.28,8.34,2.11,12.62,2.43.48.04.48-.71,0-.75-7.57-.57-14.98-2.77-21.75-6.18s-13.02-8.09-18.14-13.74c-2.86-3.16-5.36-6.63-7.41-10.36-.23-.42-.88-.05-.65.38h0Z"/><path class="cls-1" d="M532.84,573.62c7.07,1.24,14.38.31,21.09-2.15s13.09-6.53,18.16-11.73c2.82-2.89,5.26-6.14,7.17-9.7.23-.43-.42-.8-.65-.38-3.35,6.25-8.35,11.54-14.19,15.54s-12.6,6.81-19.64,7.83c-3.89.56-7.87.55-11.75-.13-.47-.08-.67.64-.2.72h0Z"/><path class="cls-1" d="M623.41,548.68c2.82,5.7,7.82,9.99,13.47,12.77,6.54,3.21,13.83,4.32,21.05,4.55,4.59.14,9.19-.05,13.77-.26.48-.02.48-.77,0-.75-14.06.62-29.86,1.1-41.26-8.6-2.64-2.25-4.85-4.97-6.39-8.08-.21-.43-.86-.05-.65.38h0Z"/><path class="cls-1" d="M527.48,624.44c10.98-.59,21.86-2.83,32.2-6.56,5.16-1.86,10.2-4.09,15.03-6.69s9.51-5.41,13.63-8.91c2.3-1.96,4.23-4.23,5.65-6.9s2.44-5.5,3.32-8.36c.14-.46-.58-.66-.72-.2-1.58,5.16-3.65,10.18-7.66,13.93-1.96,1.84-4.18,3.39-6.41,4.88s-4.46,2.84-6.77,4.13c-9.45,5.28-19.7,9.11-30.26,11.45-5.93,1.32-11.95,2.15-18.01,2.48-.48.03-.48.78,0,.75h0Z"/><path class="cls-1" d="M589.28,601.97c4.9,1.35,9.81,2.81,14.85,3.55,4.35.64,8.69.52,12.97-.5,8.47-2.01,16.17-7.01,21.93-13.49,3.2-3.6,5.83-7.71,7.62-12.2.18-.45-.55-.64-.72-.2-3.18,7.94-9.07,14.75-16.16,19.47-7.09,4.71-15.53,7.33-24.06,6.36-5.52-.62-10.89-2.25-16.22-3.72-.47-.13-.66.59-.2.72h0Z"/><path class="cls-1" d="M516.06,528.42c2.18,10.88,2.46,22.1.82,33.07l1.88-.5c-1.77-1.55.04-4.82.4-6.69.46-2.46.26-4.93-.11-7.39-.71-4.76-2.58-10.22.08-14.69l-2.1-.57c.92,8.81.79,17.71-.45,26.48h2.17c-3.01-11.14-3.23-22.9-.62-34.15l-2.21-.3c2.26,18.29,2.61,36.79,1.04,55.15h2.25c-.06-4.03-.61-8.03-1.62-11.93-.37-1.43-2.4-.8-2.17.6,2.63,16.02,2.43,32.46-.58,48.41l2.21.3c.18-8.52,1.02-17.01,2.56-25.39,1.13-6.15,2.85-13.36-1.61-18.62-.6-.7-2.04-.16-1.92.8.62,5.06.37,10.23-.01,15.29s-1.02,10.26-1.94,15.33h2.17c-1.61-4.29-2.02-9.07-2.28-13.61-.32-5.46-.28-11.03.49-16.46.32-2.29.74-4.68,1.67-6.81l-2.06-.87c-.89,4.84-.6,9.89-.24,14.76s.98,9.89,1.67,14.81c.18,1.28,2.2.93,2.21-.3.04-6.75.07-13.5.11-20.24.02-3.23-.01-6.47.05-9.7.04-1.97.2-5.11,2.37-5.97l-1.38-.79c2.57,9.43,3.91,19.16,3.58,28.95-.33,9.79-2.32,19.41-5.49,28.66l2.21.3c1.08-10.03,1.31-20.11,1.94-30.17.33-5.28.79-10.56,1.5-15.8s1.47-9.96,1.79-14.98c.35-5.58.06-11.24-1.68-16.59l-2.06.87c2.56,5.26,2.92,11.32,1.1,16.87l2.06-.27c-2.11-4.11-3.32-8.6-3.56-13.22-.08-1.44-2.33-1.45-2.25,0,.26,5.03,1.57,9.88,3.87,14.35.47.91,1.77.6,2.06-.27,2.01-6.14,1.49-12.81-1.33-18.61-.56-1.14-2.45-.34-2.06.87,3.15,9.72,1.31,20.04-.05,29.91-1.36,9.9-1.82,19.86-2.31,29.83-.29,5.74-.66,11.48-1.27,17.2-.14,1.32,1.82,1.43,2.21.3,3.23-9.43,5.24-19.27,5.57-29.25.33-9.97-1.04-19.93-3.66-29.55-.15-.54-.82-1.01-1.38-.79-2.37.94-3.43,3.1-3.8,5.51-.5,3.22-.24,6.61-.26,9.86-.04,7.57-.08,15.14-.12,22.71l2.21-.3c-.66-4.72-1.23-9.46-1.59-14.21s-.69-9.54.16-14.16c.21-1.15-1.51-2.12-2.06-.87-1.91,4.39-2.31,9.45-2.53,14.19-.27,5.7-.06,11.46.74,17.11.35,2.47.8,4.97,1.68,7.31.35.93,1.95,1.2,2.17,0,.93-5.14,1.57-10.34,1.99-15.54.41-5.19.68-10.5.05-15.68l-1.92.8c4.29,5.07,1.58,13.04.61,18.81-1.31,7.8-2.05,15.7-2.22,23.61-.03,1.24,1.97,1.57,2.21.3,3.09-16.37,3.28-33.16.58-49.61l-2.17.6c.97,3.71,1.48,7.49,1.54,11.33.02,1.47,2.13,1.43,2.25,0,1.57-18.36,1.22-36.86-1.04-55.15-.14-1.16-1.9-1.65-2.21-.3-2.7,11.64-2.5,23.81.62,35.34.27.99,2.01,1.15,2.17,0,1.27-8.98,1.47-18.06.53-27.08-.11-1.06-1.48-1.6-2.1-.57-2.96,4.97-1.21,10.75-.37,16.05.46,2.9.49,5.62-.32,8.45-.66,2.31-1.41,5.17.66,7,.56.49,1.74.41,1.88-.5,1.71-11.4,1.44-22.97-.82-34.27-.28-1.42-2.45-.82-2.17.6h0Z"/><path class="cls-1" d="M516,560c-.29-2.37-.59-4.74-.88-7.11-.07-.58-.47-1.15-1.12-1.12-.55.02-1.2.5-1.12,1.12.29,2.37.59,4.74.88,7.11.07.58.47,1.15,1.12,1.12.55-.02,1.2-.5,1.12-1.12h0Z"/><path class="cls-1" d="M513.79,617.4c.58,3.49,3.64,5.45,6.2,7.49.66.52,1.3,1.07,1.88,1.67.52.55.91,1.38,1.63,1.69.62.27,1.26.14,1.87-.1.34-.13.66-.3,1-.44.08-.03.26-.09.32-.14.31-.28.87.95-.7-.16l-.69-.9c-.29-.94.15-.41-.07-.27-.12.07-.28.53-.35.65-.24.42-.51.82-.78,1.22-.5.74-1.06,1.46-1.52,2.22-.73,1.2-1.25,2.56-1.74,3.87-1.35,3.57-2.32,7.29-3.2,11-2.13,8.89-3.7,17.93-4.98,26.98-.52,3.7-1.02,7.42-1.29,11.15l.44-1.06.64-.37,1.16.15c.31.17.79.75.68,1.06.03-.08-.02-.26-.03-.36,0-.43-.02-.85-.02-1.28,0-1.22.02-2.45.04-3.67.07-3.29.17-6.57.24-9.86.06-2.33.22-4.71.06-7.04-.02-.29-.04-.58-.11-.86-.13-.54-.28-.88-.24-1.49.05-.77.17-1.54.27-2.31.43-3.39.98-6.77,1.47-10.16,1.06-7.28,1.92-14.63,1.01-21.97-.23-1.89-3.24-1.91-3,0,.99,8.05-.14,16.09-1.33,24.05-.31,2.08-.63,4.16-.91,6.24-.24,1.75-.76,3.75-.45,5.5.07.39.19.73.36,1.09.26.55-.11-.3-.04-.09-.12-.33-.02-.26-.01.07.01.49.02.99.02,1.48,0,3.66-.14,7.33-.23,10.99-.08,3.1-.34,6.27-.12,9.37.03.43.05.88.27,1.25.69,1.13,2.39.89,2.78-.36.22-.72.15-1.66.22-2.41.08-.88.18-1.75.28-2.63.53-4.65,1.23-9.28,1.99-13.89,1.62-9.77,3.32-19.84,6.7-29.19.5-1.39,1.04-2.81,1.85-4.05.95-1.46,3.37-3.84,2.87-5.76-.36-1.4-1.79-1.36-2.86-.91-.28.12-.87.26-1.09.48-.16.17-.82-.18.33.24.88.32.48.24.33-.06-.16-.32-.49-.63-.73-.89-1.76-1.94-4.13-3.2-5.95-5.07-.84-.86-1.37-1.8-1.57-2.99-.31-1.9-3.21-1.09-2.89.8h0Z"/><path class="cls-1" d="M516.02,625.08c1.19,3.13,1.6,6.24,1.25,9.57-.08.74.63,1.38,1.3,1.47.71.1,1.47-.34,1.65-1.07.51-2.12,1.47-4.04,2.85-5.63.53-.61.6-1.52,0-2.12-.54-.54-1.59-.61-2.12,0-1.74,2-3.01,4.37-3.63,6.95l2.95.4c.37-3.49-.1-7.09-1.35-10.37-.29-.76-1.01-1.28-1.85-1.05-.72.2-1.34,1.08-1.05,1.85h0Z"/><path class="cls-1" d="M522.95,626.6c-1.15-4.41-2-8.89-2.49-13.42l-2.95.4c.9,2.25,2.04,4.37,3.52,6.3.72.94,1.5,1.82,2.32,2.68.62.65,1.41,1.38,1.42,2.34l1.9-1.45c-2.83-.73-4.24-3.75-5.26-6.23-1.26-3.08-2.54-6.2-5.42-8.12-1-.67-2.2.23-2.26,1.3-.25,4.46.13,8.93,1.08,13.3.41,1.89,3.3,1.09,2.89-.8-.9-4.11-1.21-8.3-.97-12.5l-2.26,1.3c2.66,1.77,3.51,5.27,4.76,8.02,1.32,2.92,3.37,5.79,6.63,6.63.93.24,1.91-.46,1.9-1.45-.02-2.59-2.15-4.16-3.67-5.96s-2.8-3.93-3.68-6.15c-.28-.69-.85-1.19-1.65-1.07-.67.1-1.38.72-1.3,1.47.52,4.8,1.38,9.55,2.6,14.22.49,1.87,3.38,1.07,2.89-.8h0Z"/><path class="cls-1" d="M516.34,343.79c3.18.65,6.63-.39,8.89-2.73,2.52-2.62,3.04-6.21,3.38-9.67.21-2.1.44-4.2,1.11-6.22.15-.46-.57-.66-.72-.2-1.08,3.28-.94,6.74-1.63,10.09s-2.46,6.15-5.61,7.47c-1.64.69-3.47.89-5.21.53-.47-.1-.67.63-.2.72h0Z"/><path class="cls-1" d="M510.57,616.06c-21.1,14.68-46.79,22.42-72.45,22.71-25.79-.05-51.44-11.64-68.74-30.75-8.73-9.64-14.47-21.62-17.98-34.06-3.31-12.06-5.79-27.59,3.76-37.55,4.3-4.37,7.57-10.06,7.74-16.26.09-3.17-.49-6.49.04-9.73.65-5.05,3.34-9.87,7.4-12.92,4.81-3.8,7.98-9.45,8.78-15.54.44-3.2-.16-6.37.46-9.68.69-3.47,2.63-6.5,5.21-8.87,3.61-3.39,8.88-3.93,12.59-6.97,2.19-1.85,3.9-4.53,4.58-7.31.76-3.06.08-6.23.6-9.47.78-5.18,4.5-9.93,9.38-11.81,5.87-2.13,11.11-5.54,14.79-10.65,1.94-2.56,2.88-5.57,4.76-8.31,1.97-2.84,4.63-5,7.58-6.75,2.72-1.73,6.31-2.31,9.14-3.4,2.57-1.1,4.65-3.47,5.7-6.04,1.13-2.84,1.1-6.09,1.76-9.17.98-4.99,3.69-9.64,7.34-13.13,3.46-3.58,8.02-5.54,12.2-7.95,3.61-2.75,5.88-6.94,7.92-11.03,9.13-20.36,12.98-42.65,17.03-64.5,4.3-25.22,7.49-50.67,9.85-76.14.07-.76.74-1.32,1.5-1.25.73.07,1.27.69,1.26,1.41-.86,33.72-1.18,67.49-1.47,101.25-.84,93.52-.82,209.82-.72,303.86h0ZM510.57,616.06c-1.38-98.28-2.25-206.17-1.83-303.88.21-33.77.47-67.53,1.26-101.31,0,0,2.75.16,2.75.16-1.13,12.8-2.54,25.55-4.14,38.29-3.94,28.54-11.53,89.75-28,111.88-1.99,2.75-5.04,4.66-8.1,6.02-5.44,2.78-10.23,6.99-12.7,12.61-2.12,4.41-1.5,9.35-3.29,13.94-1.38,3.31-3.89,6.13-7.22,7.56-1.66.7-3.26,1.02-4.72,1.48-5.84,1.75-10.66,6.04-13.06,11.7-2.92,6.01-8.02,10.97-14.04,13.91-3.03,1.47-6.13,2.24-8.19,4.17-2.08,1.92-3.66,4.66-4.09,7.49-.47,3.1.17,6.46-.66,9.68-1.24,5.09-5.08,9.41-9.9,11.35-2.9,1.26-5.81,2.16-8.12,4.25-3.45,3-5.03,7.38-4.66,11.95.36,6.68-1.91,13.54-6.29,18.64-2.24,2.61-5.1,4.32-6.9,6.61-1.84,2.32-2.91,5.3-3.38,8.22-.51,3.12.04,6.24-.08,9.46-.22,5.09-2.2,9.93-5.23,13.94-1.91,2.58-4.42,4.62-6.05,7.32-5.56,9.68-3.36,21.61-.68,31.95,3.36,12.22,8.88,23.97,17.38,33.48,16.93,18.88,42.07,30.6,67.5,30.95,25.57,0,51.23-7.42,72.44-21.81h0Z"/><path class="cls-1" d="M510.04,379.05c-7.63,2.72-15.95,4.93-24.1,3.58s-14.34-6.02-20.55-10.59c-1.17-.86-2.29,1.09-1.14,1.94,6.49,4.78,13.39,9.65,21.54,10.89s16.93-.83,24.85-3.65c1.35-.48.77-2.66-.6-2.17h0Z"/><path class="cls-1" d="M488.51,384.71c-4.88,6.86-11.35,12.53-18.48,16.96s-15.4,7.86-23.84,9.52c-4.54.89-9.18,1.28-13.8,1.03-.48-.03-.48.72,0,.75,8.48.46,17.02-1.2,24.94-4.19s15.78-7.57,22.34-13.29c3.55-3.09,6.76-6.56,9.49-10.4.28-.39-.37-.77-.65-.38h0Z"/><path class="cls-1" d="M510.69,438.24c-13.33,5.28-27.41,8.97-41.78,9.62-12.96.59-25.94-1.54-37.88-6.68-6.58-2.83-12.81-6.52-18.31-11.11-1.1-.92-2.7.66-1.59,1.59,10,8.34,22.19,13.9,34.88,16.63,13.73,2.95,27.97,2.28,41.65-.62,8.08-1.71,15.96-4.21,23.64-7.25,1.33-.53.75-2.7-.6-2.17h0Z"/><path class="cls-1" d="M508.64,489.77c-9.51,17.29-31.14,20.27-48.85,21.98-10.39,1-20.98,1.55-31.3-.36-8.54-1.58-17-4.1-24.86-7.82-8.71-4.13-16.63-9.79-22.89-17.17-.94-1.11-2.52.49-1.59,1.59,11.66,13.75,28.78,21.37,46.12,25.04,10.45,2.21,21.05,2.14,31.65,1.23s21.24-1.91,31.19-5.51c9.16-3.32,17.71-9.16,22.49-17.84.7-1.27-1.24-2.41-1.94-1.14h0Z"/><path class="cls-1" d="M507.48,496.29c-3.5,5.64-5.22,12.23-4.93,18.86.04.93,1.22,1.54,1.92.8,4.1-4.35,6.22-10.29,5.72-16.26-.11-1.3-1.74-1.49-2.21-.3-1.57,3.99-1.08,8.33-.73,12.49s.67,8.43-1.92,11.88l1.54-.4c-.75-.39-.45-1.72-.39-2.41.11-1.12.22-2.24.33-3.35.23-2.4.47-4.79.7-7.19.1-.98-1.29-1.47-1.92-.8-1.42,1.53-1.62,3.51-1.59,5.52.03,1.72.21,4.15-1.65,5l1.69.97c-.26-5.44.06-10.88.98-16.25.17-1.01-1.06-2-1.88-1.09-5.89,6.48-6.5,16.97-1.16,23.97.49.65,1.48.8,1.94,0,1.81-3.09,1.71-6.67,1.39-10.12-.4-4.22-.82-8.44-1.23-12.66-.09-.93-1.18-1.53-1.92-.8-2.98,2.97-4.19,7.23-3.29,11.33.2.91,1.63,1.13,2.06.27,1.05-2.15,1.95-4.37,2.63-6.66.35-1.17.64-2.36.88-3.56.22-1.09.56-2.33.45-3.44-.18-1.9-2.06-2.62-3.58-1.57-1.69,1.18-2.41,3.74-2.93,5.62-2.02,7.34-3.63,19.47,5.25,23.11,1.82.75,4.03.81,5.23-1,1.03-1.56.88-3.62.6-5.38-.17-1.08-1.98-1.06-2.17,0-.24,1.34-.49,2.68-.73,4.01-.26,1.42,1.91,2.02,2.17.6.24-1.34.49-2.68.73-4.01h-2.17c.17,1.05.45,3.18-.63,3.88-1.4.91-3.83-1.01-4.72-1.95-2.87-3.01-3.17-7.35-2.75-11.28.23-2.12.61-4.26,1.1-6.34.23-.98.5-1.95.86-2.89.16-.42.86-2.53,1.44-2.56.26-.01-.95,5.3-1.13,5.93-.64,2.19-1.46,4.3-2.46,6.35l2.06.27c-.73-3.31.31-6.75,2.71-9.14l-1.92-.8c.38,3.92.77,7.84,1.15,11.76.32,3.3.76,6.89-.99,9.88h1.94c-4.71-6.19-4.46-15.45.81-21.25l-1.88-1.09c-.96,5.57-1.33,11.2-1.06,16.85.04.9.91,1.33,1.69.97,1.81-.83,2.52-2.75,2.72-4.62.21-2-.54-4.64.97-6.26l-1.92-.8c-.3,3.03-.59,6.07-.89,9.1-.19,1.93-.76,4.69,1.36,5.79.59.3,1.16.11,1.54-.4,5.49-7.32-.25-16.94,2.88-24.91l-2.21-.3c.46,5.39-1.34,10.72-5.06,14.67l1.92.8c-.27-6.26,1.33-12.39,4.63-17.72.76-1.23-1.18-2.37-1.94-1.14h0Z"/><path class="cls-1" d="M508.11,441.88c-2.85,1.28-4.53,4.14-5.19,7.1-.84,3.79.03,7.59.33,11.39.35,4.4-.96,8.36-1.8,12.61-.62,3.16-.76,6.41-.21,9.59.61,3.53,2.24,6.88,5.03,9.18.62.51,1.67.39,1.88-.5,1.44-6,1.44-12.21,0-18.21-.21-.87-1.66-1.17-2.06-.27-1.21,2.77-2.14,5.63-2.76,8.59-.29,1.41,1.84,2.02,2.17.6,2.73-11.7,5.38-23.66,3.59-35.71-.09-.63-.85-.89-1.38-.79-3.09.63-3.43,4.3-3.61,6.86-.31,4.44-.62,8.88-.93,13.32s-.72,8.51-.86,12.76c-.11,3.32.29,6.7,2.58,9.26.97,1.08,2.55-.51,1.59-1.59-2.04-2.29-2.04-5.56-1.89-8.44.19-3.67.5-7.34.76-11.01s.53-7.56.79-11.35c.11-1.62.11-3.28.38-4.88.19-1.12.52-2.51,1.78-2.77l-1.38-.79c1.73,11.61-.96,23.25-3.59,34.51l2.17.6c.58-2.76,1.41-5.46,2.54-8.05l-2.06-.27c1.35,5.61,1.35,11.41,0,17.02l1.88-.5c-3.02-2.5-4.4-6.2-4.67-10.03-.3-4.28.89-8.21,1.76-12.35.5-2.37.73-4.74.56-7.17s-.59-4.65-.7-7c-.17-3.7.7-8.11,4.42-9.78,1.32-.59.18-2.53-1.14-1.94h0Z"/><path class="cls-1" d="M507.94,384.04c-3.08,7.05-6.15,14.25-7.04,21.95-.43,3.75-.23,7.55.67,11.22.85,3.44,2.2,6.72,3.34,10.07,1.32,3.85,2.33,7.77,1.85,11.87-.15,1.3,1.85,1.46,2.21.3,1.12-3.59.9-7.32.42-11-.51-3.92-1.05-7.83-1.39-11.77-.7-8.11-.82-16.27-.4-24.4.07-1.36-1.78-1.4-2.21-.3-2.47,6.25-3.33,13.04-2.51,19.71.18,1.42,2.43,1.44,2.25,0-.81-6.5.02-13.02,2.43-19.11l-2.21-.3c-.41,7.97-.3,15.96.36,23.91.32,3.83.79,7.63,1.32,11.43s.91,7.56-.23,11.23l2.21.3c1.05-9.08-4.75-16.9-5.88-25.65-1.27-9.86,2.88-19.49,6.74-28.32.57-1.31-1.36-2.46-1.94-1.14h0Z"/><path class="cls-1" d="M509.12,339.38c-2.37,1.61-3.14,4.31-3.55,7.02-.57,3.79-.89,7.62-.98,11.45-.18,7.64.6,15.3,2.26,22.76.31,1.41,2.48.81,2.17-.6-1.51-6.81-2.26-13.76-2.2-20.73.03-3.41.24-6.83.65-10.22.3-2.52.45-6.15,2.79-7.73,1.19-.81.07-2.76-1.14-1.94h0Z"/><path class="cls-1" d="M508.25,350.45c-1.03,6.11-2.06,12.22-3.09,18.33-.24,1.42,1.93,2.03,2.17.6,1.03-6.11,2.06-12.22,3.09-18.33.24-1.42-1.93-2.03-2.17-.6h0Z"/><path class="cls-1" d="M481.19,509.08c-9.71-.23-18.58-5.51-24.74-12.82-3.25-3.86-5.74-8.3-7.4-13.06-1.79-5.16-2.66-10.61-2.94-16.05-.31-6.2.12-12.42,1.02-18.55.07-.47-.65-.68-.72-.2-1.6,11.03-1.91,22.65,1.4,33.41,2.97,9.63,9.27,18.23,17.97,23.43,4.67,2.78,9.96,4.46,15.41,4.59.48.01.48-.74,0-.75h0Z"/><path class="cls-1" d="M448.87,484.44c-8.74-1.59-17.42-3.49-26.02-5.68-4.35-1.11-8.68-2.29-12.98-3.59-3.84-1.16-7.78-2.29-11.42-3.99s-7.34-4.25-8.41-8.38c-.12-.47-.85-.27-.72.2.93,3.58,3.73,6.11,6.86,7.86,3.43,1.92,7.24,3.08,10.97,4.25,8.83,2.78,17.82,5.06,26.86,7.07,4.87,1.08,9.76,2.08,14.67,2.98.47.09.67-.64.2-.72h0Z"/><path class="cls-1" d="M508.74,561.03c-16,14.3-38.48,19.11-59.17,21.76s-43.23,2.44-64.1-2.9c-11.64-2.98-22.82-7.57-33.03-13.92-1.23-.77-2.36,1.18-1.14,1.94,18.64,11.58,40.3,17.19,62.08,18.5,11.02.66,22.09.25,33.05-.99,10.78-1.22,21.59-3.08,32.01-6.13,11.61-3.4,22.81-8.55,31.89-16.67,1.08-.97-.51-2.55-1.59-1.59h0Z"/><path class="cls-1" d="M505.66,529.7c-5.04,7.16-13.35,10.93-21.56,13.16-10.14,2.76-20.75,3.81-31.19,4.62-11.02.85-22.11,1.66-33.17,1.75-10.31.09-20.72-.65-30.62-3.69-9.87-3.04-19.23-8.23-26.12-16.03-.96-1.09-2.55.51-1.59,1.59,13.47,15.23,34.41,20.04,53.95,20.36,11.54.19,23.12-.71,34.63-1.52,10.93-.78,22.01-1.78,32.68-4.39,9.53-2.33,19.12-6.45,24.94-14.72.84-1.19-1.11-2.31-1.94-1.14h0Z"/><path class="cls-1" d="M429.69,513.09c-3.61,6.57-8.49,12.4-14.24,17.21s-12.43,8.59-19.58,10.92c-4.01,1.31-8.17,2.15-12.38,2.47-.48.04-.48.79,0,.75,7.58-.57,14.95-2.81,21.67-6.35s12.84-8.39,17.85-14.14c2.81-3.22,5.27-6.73,7.33-10.48.23-.42-.41-.8-.65-.38h0Z"/><path class="cls-1" d="M490.29,572.78c-6.94,1.22-14.12.35-20.74-1.96-6.77-2.36-13.04-6.25-18.09-11.33-2.78-2.79-5.17-5.96-7.04-9.43-.23-.43-.88-.05-.65.38,3.4,6.34,8.55,11.63,14.51,15.61s13,6.73,20.2,7.68c3.99.52,8.04.47,12.01-.22.47-.08.27-.81-.2-.72h0Z"/><path class="cls-1" d="M399,548.63c-2.81,5.69-7.81,9.9-13.46,12.62-6.54,3.14-13.83,4.16-21.02,4.34-4.39.11-8.79-.08-13.18-.27-.48-.02-.48.73,0,.75,8.02.35,16.13.7,24.06-.79,6.41-1.2,12.65-3.73,17.66-7.97,2.72-2.3,5-5.1,6.58-8.3.21-.43-.43-.81-.65-.38h0Z"/><path class="cls-1" d="M495.58,624.2c-10.99-.59-21.88-2.92-32.21-6.71-5.2-1.91-10.26-4.2-15.12-6.86-2.39-1.31-4.72-2.71-7-4.2s-4.54-3.04-6.57-4.85c-2.22-1.98-3.98-4.26-5.29-6.93s-2.24-5.35-3.09-8.12c-.14-.46-.86-.26-.72.2,1.48,4.85,3.29,9.89,6.81,13.66,1.88,2.02,4.1,3.69,6.36,5.25s4.65,3.07,7.06,4.46c9.72,5.61,20.31,9.72,31.24,12.22,6.09,1.39,12.29,2.28,18.53,2.62.48.03.48-.72,0-.75h0Z"/><path class="cls-1" d="M434.06,601.63c-4.67,1.29-9.36,2.56-14.15,3.33-4.38.7-8.75.76-13.11-.16-8.44-1.79-16.17-6.55-21.98-12.87-3.28-3.56-5.99-7.68-7.79-12.18-.18-.44-.9-.25-.72.2,3.26,8.15,9.31,15.06,16.64,19.82,7.38,4.79,16.1,7.29,24.9,6.24,5.57-.66,11.01-2.15,16.41-3.64.46-.13.27-.85-.2-.72h0Z"/><path class="cls-1" d="M504.83,528.15c-2.26,11.3-2.53,22.87-.82,34.27.14.9,1.32.99,1.88.5,2.08-1.82,1.32-4.68.66-7-.81-2.83-.77-5.56-.32-8.45.83-5.31,2.59-11.08-.37-16.05-.61-1.03-1.99-.49-2.1.57-.94,9.03-.74,18.1.53,27.08.16,1.15,1.9.99,2.17,0,3.12-11.53,3.32-23.71.62-35.34-.31-1.34-2.07-.87-2.21.3-2.26,18.29-2.61,36.79-1.04,55.15.12,1.42,2.23,1.47,2.25,0,.06-3.84.58-7.61,1.54-11.33l-2.17-.6c-2.7,16.44-2.51,33.23.58,49.61.24,1.26,2.24.95,2.21-.3-.17-7.91-.91-15.8-2.22-23.61-.97-5.78-3.68-13.74.61-18.81l-1.92-.8c-.63,5.19-.37,10.49.05,15.68s1.06,10.4,1.99,15.54c.22,1.2,1.82.93,2.17,0,1.69-4.51,2.1-9.6,2.37-14.37.32-5.67.22-11.41-.61-17.04-.36-2.46-.88-4.91-1.88-7.2-.54-1.24-2.27-.3-2.06.87.85,4.62.5,9.51.16,14.16s-.93,9.49-1.59,14.21l2.21.3c-.04-7.57-.08-15.14-.12-22.71-.02-3.25.24-6.63-.26-9.86-.38-2.42-1.44-4.57-3.8-5.51-.56-.22-1.24.25-1.38.79-2.62,9.61-3.99,19.57-3.66,29.55s2.34,19.82,5.57,29.25c.38,1.12,2.35,1.04,2.21-.3-1.07-9.95-1.31-19.96-1.92-29.94-.31-5.08-.74-10.15-1.4-15.19s-1.49-10.06-1.86-15.13c-.41-5.62-.2-11.28,1.55-16.68.39-1.2-1.49-2.02-2.06-.87-2.82,5.8-3.33,12.47-1.33,18.61.28.86,1.59,1.18,2.06.27,2.3-4.48,3.61-9.33,3.87-14.35.08-1.45-2.17-1.44-2.25,0-.24,4.62-1.45,9.1-3.56,13.22l2.06.27c-1.82-5.55-1.46-11.61,1.1-16.87l-2.06-.87c-3.11,9.59-1.54,19.76-.17,29.51s1.94,20.37,2.44,30.61c.29,5.82.66,11.63,1.28,17.42l2.21-.3c-3.17-9.25-5.16-18.87-5.49-28.66s1.01-19.51,3.58-28.95l-1.38.79c2.12.84,2.32,3.87,2.37,5.8.09,3.29.04,6.58.06,9.87.04,6.75.07,13.5.11,20.24,0,1.22,2.03,1.59,2.21.3.69-4.92,1.3-9.85,1.67-14.81s.65-9.92-.24-14.76l-2.06.87c1.8,4.14,2.06,9.1,2.25,13.54.23,5.47.06,11.03-.74,16.45-.35,2.33-.79,4.67-1.62,6.88h2.17c-.92-5.07-1.54-10.2-1.94-15.33s-.63-10.24-.01-15.29c.12-.95-1.32-1.5-1.92-.8-4.46,5.26-2.74,12.48-1.61,18.62,1.54,8.38,2.38,16.87,2.56,25.39l2.21-.3c-3.01-15.95-3.21-32.39-.58-48.41.23-1.4-1.8-2.03-2.17-.6-1.02,3.9-1.56,7.9-1.62,11.93h2.25c-1.57-18.36-1.22-36.86,1.04-55.15l-2.21.3c2.61,11.25,2.39,23-.62,34.15h2.17c-1.24-8.77-1.36-17.67-.45-26.48l-2.1.57c2.67,4.47.8,9.93.08,14.69-.36,2.39-.56,4.81-.14,7.21.33,1.91,2.22,5.3.43,6.87l1.88.5c-1.64-10.97-1.35-22.19.82-33.07.28-1.41-1.89-2.02-2.17-.6h0Z"/><path class="cls-1" d="M509.32,560.32c.29-2.37.59-4.74.88-7.11.07-.59-.57-1.15-1.12-1.12-.67.03-1.05.5-1.12,1.12-.29,2.37-.59,4.74-.88,7.11-.07.59.57,1.15,1.12,1.12.67-.03,1.05-.5,1.12-1.12h0Z"/><path class="cls-1" d="M506.37,616.93c-.42,2.52-2.6,3.98-4.49,5.44-1.06.81-2.13,1.63-3.02,2.63-.21.23-.45.47-.61.74,0,.01-.31.39-.3.4.15.13.93-.42.94-.4-.06-.15-1.02-.44-1.18-.5-1.07-.45-2.5-.49-2.86.91-.26,1.02.46,2.13.97,2.96.97,1.56,2.11,2.96,2.88,4.65,1.68,3.71,2.68,7.78,3.64,11.72,1.27,5.2,2.32,10.46,3.26,15.73.87,4.88,1.64,9.77,2.28,14.68.25,1.93.48,3.85.67,5.79.07.75,0,1.69.22,2.41.38,1.25,2.09,1.49,2.78.36.44-.72.3-1.88.3-2.68,0-1.61-.03-3.22-.07-4.83-.09-3.97-.22-7.94-.29-11.91-.02-1.23-.03-2.45,0-3.68,0-.33.14-.39-.02-.05.1-.21-.12.25-.12.25.26-.32.37-.87.44-1.27.3-1.76-.22-3.76-.45-5.5-1.09-8.07-2.71-16.13-2.64-24.3.02-2,.15-4,.4-5.99s-2.77-1.89-3,0c-.8,6.53-.22,13.08.67,19.57.46,3.36,1,6.71,1.48,10.08.21,1.46.42,2.93.56,4.4.05.54.09.99-.05,1.52s-.17.34-.23.9c-.22,2.04-.04,4.17,0,6.21.07,3.3.17,6.6.25,9.9.03,1.5.07,2.99.07,4.49,0,.46,0,.93-.02,1.39,0,.14-.05.35-.03.48-.03-.15.2-.74.67-1l1.16-.15.64.37.44,1.06c-.55-7.64-1.81-15.26-3.14-22.8-1.5-8.49-3.09-17.14-5.95-25.29-.54-1.54-1.13-3.09-1.9-4.52-.4-.75-.93-1.42-1.41-2.12-.33-.48-.66-.97-.97-1.47-.14-.22-.25-.46-.39-.68-.25-.38.01-.53-.17.07l-.69.9c-.27.19-.94-.14-.71.16,0,0,.2.08.22.09.3.19.68.32,1,.45.57.23,1.19.42,1.8.22.8-.26,1.16-1.07,1.7-1.65.61-.65,1.29-1.23,1.99-1.79,2.56-2.04,5.62-3.99,6.2-7.49.31-1.89-2.58-2.7-2.89-.8h0Z"/><path class="cls-1" d="M504.15,624.61c-1.25,3.28-1.72,6.88-1.35,10.37l2.95-.4c-.62-2.59-1.88-4.95-3.63-6.95-.53-.61-1.58-.54-2.12,0-.61.61-.53,1.51,0,2.12,1.38,1.58,2.35,3.51,2.85,5.63.17.73.94,1.17,1.65,1.07.67-.09,1.38-.73,1.3-1.47-.35-3.33.05-6.44,1.25-9.57.28-.73-.31-1.68-1.05-1.85-.86-.2-1.54.26-1.85,1.05h0Z"/><path class="cls-1" d="M503.01,627.72c1.22-4.67,2.08-9.42,2.6-14.22.08-.73-.63-1.39-1.3-1.47-.79-.09-1.36.36-1.65,1.07-.89,2.21-2.14,4.33-3.68,6.15s-3.65,3.38-3.67,5.96c0,.99.96,1.69,1.9,1.45,3.26-.84,5.32-3.71,6.63-6.63,1.24-2.75,2.1-6.25,4.76-8.02l-2.26-1.3c.24,4.2-.08,8.39-.97,12.5-.41,1.88,2.48,2.69,2.89.8.95-4.36,1.33-8.83,1.08-13.3-.06-1.06-1.25-1.96-2.26-1.3-2.87,1.92-4.16,5.04-5.42,8.12-1.02,2.48-2.43,5.5-5.26,6.23l1.9,1.45c0-.96.8-1.69,1.42-2.34.82-.86,1.6-1.74,2.32-2.68,1.47-1.93,2.62-4.05,3.52-6.3l-2.95-.4c-.49,4.53-1.34,9.01-2.49,13.42-.49,1.87,2.4,2.67,2.89.8h0Z"/><path class="cls-1" d="M507.86,343.04c-3.35.69-7.02-.73-8.98-3.55s-2.2-6.52-2.57-9.89c-.21-1.92-.47-3.85-1.08-5.7-.15-.46-.88-.26-.72.2,1.17,3.54,1.03,7.32,1.79,10.94.36,1.72.96,3.43,1.99,4.88s2.41,2.54,4.02,3.23c1.82.78,3.83,1,5.77.6.47-.1.27-.82-.2-.72h0Z"/><path class="cls-1" d="M512.05,822.56c1.45,0,1.45-2.25,0-2.25s-1.45,2.25,0,2.25h0Z"/><path class="cls-1" d="M511.49,256.03c1.93,0,1.93-3,0-3s-1.93,3,0,3h0Z"/><path class="cls-1" d="M511.71,265.78c.48,0,.48-.75,0-.75s-.48.75,0,.75h0Z"/><path class="cls-1" d="M511.56,215.23c0,13.49,0,26.97,0,40.46,0,3.83,0,7.66,0,11.49,0,.48.75.48.75,0,0-13.49,0-26.97,0-40.46,0-3.83,0-7.66,0-11.49,0-.48-.75-.48-.75,0h0Z"/><path class="cls-1" d="M510.25,225.31c.65-3.02,1.29-6.05,1.94-9.07.1-.47-.62-.67-.72-.2-.65,3.02-1.29,6.05-1.94,9.07-.1.47.62.67.72.2h0Z"/><path class="cls-1" d="M510.11,225.78c.43-4.91.53-9.96,1.63-14.78h-.72c.57,2.5,1.03,5.02,1.38,7.56s.63,5.15.52,7.73l.64-.27c-.6-.49-.96-1.3-1.28-1.98-.34-.72-.67-1.48-.86-2.26-.11-.42-.72-.31-.74.1-.05,1.05.08,2.11.17,3.15.05.57.1,1.13.14,1.7.01.24.03.49.03.73,0,.15-.01,1.21.21,1.07h-.38l.06.03-.19-.32c-.34,7.71-.68,15.41-1.02,23.12h.75c.1-3.35.2-6.69.3-10.04l-.74.1c.99,3.27,1.39,6.66,1.19,10.07l.74-.1c-.35-1.5-.46-3.02-.32-4.55.04-.49-.69-.47-.75,0-.58,4.83-.81,9.7-.67,14.56.01.42.61.51.74.1.35-1.17.38-2.38.11-3.57-.11-.47-.82-.27-.72.2.39,1.93.21,3.9-.5,5.74l.69-.09c-1.93-2.7-2.31-6.25-1.03-9.31l-.72-.2c-.24,1.21-.61,2.38-1.14,3.5l.7.19.06-4.69h-.75c.25,4.08.07,8.17-.56,12.21l.55-.22c-.95-.55-2.18.72-1.49,1.63.24.31.82.15.69-.29-.41-1.41-.32-2.85.24-4.2h-.72c1.3,3.27,5.3,4.9,8.51,3.48.11-.05.19-.21.19-.32-.21-2.61-.41-5.23-.62-7.84-.04-.48-.74-.49-.75,0-.08,2.8.51,5.56,1.72,8.09.17.35.69.16.7-.19.07-4.93-.65-9.85-2.13-14.55-.14-.46-.87-.26-.72.2,1.46,4.64,2.17,9.48,2.1,14.35l.7-.19c-1.15-2.41-1.7-5.04-1.62-7.71h-.75c.21,2.61.41,5.23.62,7.84l.19-.32c-2.74,1.21-6.3-.25-7.41-3.03-.14-.36-.58-.35-.72,0-.61,1.47-.69,3.07-.24,4.6l.69-.29c-.21-.27.12-.8.46-.6.19.11.51.02.55-.22.64-4.1.84-8.26.58-12.41-.03-.48-.74-.49-.75,0l-.06,4.69c0,.35.54.54.7.19.55-1.18.96-2.4,1.21-3.68.1-.48-.54-.64-.72-.2-1.35,3.22-.92,7.04,1.11,9.89.2.27.57.22.69-.09.76-1.97.92-4.07.5-6.14l-.72.2c.25,1.07.21,2.12-.11,3.17l.74.1c-.14-4.86.09-9.73.67-14.56h-.75c-.14,1.6-.02,3.19.35,4.75.1.43.71.31.74-.1.2-3.47-.21-6.94-1.22-10.27-.12-.41-.72-.33-.74.1-.1,3.35-.2,6.69-.3,10.04-.01.48.73.48.75,0,.34-7.71.68-15.41,1.02-23.12,0-.12-.07-.27-.19-.32-.61-.3-.97.61-.45.92.8.47.94-.86.93-1.31-.02-1.88-.43-3.76-.34-5.65l-.74.1c.21.84.57,1.66.94,2.43.35.74.75,1.61,1.4,2.13.25.2.62.08.64-.27.12-2.58-.17-5.18-.52-7.74s-.82-5.19-1.41-7.76c-.08-.36-.64-.36-.72,0-1.12,4.89-1.23,10-1.66,14.98-.04.48.71.48.75,0h0Z"/><path class="cls-1" d="M509.51,254.32c1.93,0,1.93-3,0-3s-1.93,3,0,3h0Z"/><path class="cls-1" d="M513.06,253.14c1.93,0,1.93-3,0-3s-1.93,3,0,3h0Z"/><path class="cls-1" d="M505.64,449.46c1.07,7.79.68,15.75-1.09,23.4h2.89c-.87-5.33-.33-10.77,1.43-15.87l-2.89-.8c-.12.47-.23.93-.35,1.4-.46,1.87,2.43,2.67,2.89.8.12-.47.23-.93.35-1.4.47-1.89-2.27-2.61-2.89-.8-1.94,5.63-2.38,11.59-1.43,17.46.24,1.48,2.57,1.38,2.89,0,1.9-8.22,2.24-16.65,1.09-25-.11-.81-1.14-1.23-1.85-1.05-.87.23-1.16,1.05-1.05,1.85h0Z"/><path class="cls-1" d="M506.79,270.7l.47-.02c.85-.03,1.45-.66,1.5-1.5.08-1.35.16-2.71.23-4.06.02-.35-.18-.82-.44-1.06s-.53-.37-.86-.41-.68,0-.96.18c-.31.2-.63.52-.69.9-.21,1.26-.41,2.53-.62,3.79-.07.41-.07.78.15,1.16.18.31.54.61.9.69.38.09.81.07,1.16-.15.31-.2.63-.52.69-.9.21-1.26.41-2.53.62-3.79l-2.95-.4c-.08,1.35-.16,2.71-.23,4.06l1.5-1.5-.47.02c-.39.02-.78.16-1.06.44-.26.26-.46.69-.44,1.06.04.79.66,1.53,1.5,1.5h0Z"/><path class="cls-1" d="M508.53,243.34c.06,1.95-.06,3.87-.4,5.78l2.95.4c.25-2.48.27-4.95.06-7.43l-2.95.4c.5,2.6.02,5.24-.41,7.81-.41,2.42-.82,4.85-1.22,7.27-.35,2.08-.73,4.19-.45,6.31.14,1.09.45,2.1.97,3.07.16.3,1.17,1.64.18,1.31l-.4,2.95c1.38.08,3.01.36,3.86-1.01.8-1.29.84-3.33,1.03-4.8.47-3.45.58-6.92.33-10.39h-3c.45,5.4.44,10.83-.04,16.23-.15,1.75,2.44,1.93,2.95.4,1.23-3.76-.12-7.74.96-11.5h-2.89c.94,2.52,1.42,5.11,1.43,7.8h3c-.08-5.67-.39-11.33-.93-16.98l-2.8.76c1.61,3.05,2.59,6.41,2.79,9.85.1,1.64-.11,3.21-.17,4.84-.05,1.37.47,2.49,1.8,2.98l-1.1-1.45c-.03,1.63,1.07,3.46,2.96,2.8.81-.28,1.22-1.01,1.05-1.85-.85-4.26-1.45-8.56-1.85-12.88s-.75-8.6-1.64-12.83c-.35-1.67-2.97-1.28-2.95.4.04,2.94-.29,5.83-1.01,8.68l2.95.4c-.13-2.88-.25-5.76-.38-8.64l-.18-4.19c-.05-1.08,0-2.21-.86-3-1.01-.93-2.44-.22-2.56,1.06-.13,1.4-.15,2.86.64,4.08.7,1.1,1.95,1.83,3.27,1.68,1.05-.12,1.97-1.21,1.3-2.26-1.3-2.01-1.36-4.37-1.29-6.7.08-2.76.08-5.53.18-8.3.03-.85-.72-1.45-1.5-1.5-.23-.02-.46-.03-.69-.05-.75-.05-1.58.73-1.5,1.5.34,3.16.24,6.32-.38,9.44-.38,1.89,2.51,2.69,2.89.8.67-3.38.86-6.8.49-10.24l-1.5,1.5c.23.02.46.03.69.05l-1.5-1.5c-.11,3.03-.17,6.07-.2,9.1-.02,2.58.3,5.19,1.72,7.4l1.3-2.26c-1.32.15-.98-1.94-.91-2.76l-2.56,1.06c-.12-.26-.14-.13-.04.38l.04.99.07,1.48.16,3.7.32,7.16c.07,1.64,2.52,2.1,2.95.4.79-3.1,1.16-6.28,1.12-9.48l-2.95.4c.9,4.29,1.2,8.65,1.62,13s1.03,8.51,1.87,12.72l1.05-1.85c.66.67.93.7.84.09.01-.7-.48-1.22-1.1-1.45.84.31.21.52.41-.08.07-.21.05-.49.08-.71.08-.8.13-1.59.14-2.39.02-1.52-.12-3.03-.35-4.52-.46-3.01-1.48-5.9-2.9-8.59-.67-1.26-2.94-.74-2.8.76.54,5.65.85,11.31.93,16.98.03,1.93,3.01,1.93,3,0-.01-2.94-.52-5.84-1.54-8.6-.5-1.34-2.46-1.51-2.89,0-1.09,3.78.25,7.78-.96,11.5l2.95.4c.47-5.4.48-10.82.04-16.23-.16-1.91-3.14-1.94-3,0,.18,2.62.18,5.24-.05,7.86-.11,1.29-.28,2.58-.5,3.86-.05.31-.22,1.6-.22,1.61.03-.04-1.15-.1-1.46-.12-1.76-.1-1.93,2.42-.4,2.95,2.24.76,4.67-1.24,4.18-3.6-.24-1.19-1.12-2.1-1.43-3.28-.35-1.35-.23-2.81-.04-4.18.41-3.01,1-6,1.5-9,.53-3.14,1.02-6.24.41-9.41-.32-1.64-3.09-1.29-2.95.4.21,2.48.19,4.95-.06,7.43-.17,1.67,2.65,2.06,2.95.4.39-2.18.58-4.37.51-6.58-.06-1.93-3.06-1.93-3,0h0Z"/><path class="cls-1" d="M512.94,226.2c.28-2.22.2-4.45.25-6.68.02-.78-.7-1.54-1.5-1.5s-1.48.66-1.5,1.5c-.04,2.23.03,4.47-.25,6.68-.04.35.2.82.44,1.06.26.26.69.46,1.06.44s.79-.14,1.06-.44c.29-.31.39-.64.44-1.06h0Z"/><path class="cls-1" d="M509.94,220.91l.03.46c.03.56.4,1.03.98,1.1.51.07,1.14-.25,1.23-.81s.12-1.08.12-1.62c0-.22,0-.44.01-.66,0-.06,0-.11.01-.17,0-.01.03-.28,0-.1-.02.16,0-.02.01-.05.01-.07.03-.13.04-.2l-1.08.83s.08,0,.11,0c.36,0,.67-.16.88-.44.23-.3.26-.61.2-.98,0-.04-.04-.28-.02-.1.02.16,0-.03,0-.06-.01-.14-.02-.28-.03-.42-.01-.27,0-.53.02-.8.04-.59-.55-1.15-1.12-1.12-.65.03-1.08.49-1.12,1.12-.05.66,0,1.32.11,1.98l1.08-1.42s-.08,0-.11,0c-.48,0-.97.34-1.08.83-.13.53-.16,1.07-.16,1.61,0,.22,0,.44,0,.67,0,.12,0,.25-.02.37,0,.06-.01.11-.02.16-.01.16.05-.28,0-.01l2.21.3-.03-.46c-.03-.59-.49-1.15-1.12-1.12-.58.03-1.16.5-1.12,1.12h0Z"/><path class="cls-1" d="M512.07,215.9c0-.05-.02-.1-.02-.16-.03-.16.02.17,0-.03-.01-.1-.02-.21-.03-.31-.02-.22-.03-.44-.03-.65s0-.42.02-.63c0-.1.02-.21.03-.31,0-.03,0-.07.01-.1-.01.1-.02.13,0,.07,0-.06.02-.12.03-.18.03-.2.03-.39-.08-.58-.09-.16-.27-.3-.45-.34-.36-.08-.85.11-.92.52-.17,1.04-.17,2.07,0,3.11.03.17.2.36.34.45.16.09.4.13.58.08.42-.14.59-.51.52-.92h0Z"/><path class="cls-1" d="M507.36,343.45c.57,4.58.36,9.17-.69,13.66l2.95.4c-.24-1.9-.34-3.8-.3-5.72s-2.83-1.89-3,0c-.19,2.11-.38,4.23-.58,6.34h3c.14-1.97.28-3.95.41-5.92.03-.49.12-1,.1-1.48-.02-.42-.03-.41.11-.49.25-.14.74-.08,1.04-.16s.56-.19.83-.31c.56-.25,1.16-.73,1.75-.87s.63.18.74.76c.31,1.66.28,3.45.41,5.13s.31,3.48-.01,5.19-.92,3.21-.98,4.93c-.06,1.92,1.01,7.89-2.52,7.51-.69-.07-1.23.53-1.45,1.1-.51,1.36-1.01,2.71-1.52,4.07h2.89c-1.47-5.98-1.62-12.19-.42-18.23.38-1.89-2.52-2.69-2.89-.8-1.31,6.58-1.18,13.31.42,19.83.38,1.55,2.41,1.3,2.89,0s1.01-2.71,1.52-4.07l-1.45,1.1c3.27.35,5.33-2.96,5.58-5.82.17-1.86-.26-3.74.01-5.59s.96-3.52,1.05-5.39-.14-3.83-.28-5.73c-.12-1.66-.02-3.58-.74-5.12-.63-1.36-1.99-2.13-3.48-1.88-1.35.22-2.38,1.23-3.74,1.39-2.21.25-2.66,1.71-2.8,3.72-.17,2.39-.33,4.77-.5,7.16-.14,1.94,2.83,1.9,3,0,.19-2.11.38-4.23.58-6.34h-3c-.04,1.92.06,3.82.3,5.72.19,1.54,2.53,2.2,2.95.4,1.11-4.75,1.4-9.62.8-14.46-.24-1.89-3.24-1.91-3,0h0Z"/><path class="cls-1" d="M507.74,388.61c.34,1.89.16,3.73-.43,5.55h2.89c-.21-1.07-.22-2.12-.11-3.2l-2.95.4c.72,3.95.91,7.94.65,11.94l2.95-.4c-.48-2.01-.79-4.02-.94-6.08l-2.95.4c.72,3.2.87,6.51.39,9.76l2.95.4-.47-4.51c-.2-1.89-3.16-1.94-3,0,.31,3.76.58,7.53.79,11.3.1,1.7.27,3.42.21,5.12-.07,1.86-.82,3.32-1.93,4.78l2.74.36c-1.02-3.06-1.96-6.16-2.76-9.29-.71-2.79-1.24-5.65-.14-8.41h-2.89c.65,2.25.91,4.5.81,6.84h3c-.28-2.83-.66-5.68-.84-8.52-.08-1.15.14-1.78,1.11-2.4.85-.54,1.79-.92,2.63-1.48,1.93-1.28,2.8-3.19,3.35-5.37.45-1.78.84-4.48,3.03-4.86l-1.85-1.05c1.38,8.61.4,17.55.02,26.21-.08,1.93,2.92,1.93,3,0,.39-8.96,1.3-18.1-.13-27.01-.14-.85-1.12-1.17-1.85-1.05-2.48.42-3.94,2.74-4.62,4.98-.37,1.19-.52,2.44-.98,3.6s-1.23,1.84-2.31,2.44c-2,1.11-4.06,2.15-4.38,4.67-.19,1.5.15,3.12.3,4.61.17,1.74.35,3.48.52,5.22.19,1.89,2.92,1.96,3,0,.11-2.58-.2-5.15-.92-7.64-.44-1.53-2.37-1.31-2.89,0-1.18,2.95-.78,6.16-.07,9.17.81,3.42,1.86,6.79,2.97,10.13.44,1.31,1.97,1.38,2.74.36,1.09-1.44,1.93-3.01,2.2-4.81s.09-3.75-.01-5.62c-.23-4.1-.51-8.19-.85-12.28h-3l.47,4.51c.16,1.52,2.68,2.21,2.95.4.57-3.81.46-7.59-.39-11.36-.37-1.63-3.07-1.3-2.95.4.17,2.32.51,4.61,1.05,6.88.41,1.72,2.84,1.23,2.95-.4.28-4.27,0-8.53-.76-12.74-.33-1.79-2.78-1.15-2.95.4-.14,1.35-.05,2.67.22,4,.3,1.54,2.47,1.31,2.89,0,.76-2.34.86-4.73.43-7.14-.34-1.9-3.23-1.09-2.89.8h0Z"/><path class="cls-1" d="M516.55,401.5c.39,4.13,1.75,8.35.7,12.48-.94,3.73-2.93,7.08-3.03,11.01-.05,1.93,2.95,1.93,3,0,.11-3.87,2.35-7.24,3.1-10.98.85-4.22-.37-8.32-.77-12.51-.18-1.91-3.18-1.92-3,0h0Z"/><path class="cls-1" d="M508.29,438.02c-.21,1.43-.58,2.83-1.13,4.16.09-.22-.09.2-.12.26-.07.16-.15.31-.22.47-.19.41-.38.82-.54,1.24-.29.77-.44,1.72-.18,2.52.2.63.65,1.09,1.28,1.29.42.13.93.08,1.37.09.95,0,1.91.08,2.64-.65.68-.67.76-1.71.84-2.61.02-.18.03-.37.05-.55-.04.28.03-.15.05-.23.07-.35.17-.69.28-1.02.06-.18.13-.36.2-.53-.1.24.1-.22.14-.29.16-.35.34-.68.53-1.02.4-.71.85-1.39,1.3-2.08s.15-1.69-.54-2.05c-.75-.4-1.59-.16-2.05.54-.89,1.36-1.73,2.72-2.32,4.24-.31.79-.49,1.61-.59,2.45-.02.21-.04.42-.06.63,0,.1-.02.21-.03.31.02-.14.01-.12-.02.07-.02.09-.04.18-.07.27.03-.1.08-.18.16-.24.14-.13.31-.21.5-.22-.07,0-.14,0-.21,0-.4,0-.81,0-1.21-.01-.11,0-.22,0-.32,0,.61.11.92.39.96.83,0-.09,0-.19,0-.28-.03.16-.03.16,0-.02.05-.19.1-.37.16-.56.07-.17.07-.18.02-.05.04-.09.08-.18.12-.27.17-.36.34-.71.5-1.07.67-1.54,1.16-3.13,1.4-4.8.11-.77-.19-1.65-1.05-1.85-.71-.16-1.73.22-1.85,1.05h0Z"/><path class="cls-1" d="M513.2,438.33c-.34,1.82-.37,3.65.06,5.46.19.82.49,1.61.84,2.38.48,1.06.49,1.53.33,2.7-.28,2.02-.56,4.03-.83,6.05-.19,1.36.01,3.4,1.91,3.26.68-.05,1.24-.43,1.45-1.1.31-.99.31-1.92.04-2.92l-2.89.8c.97,2.96.71,6.03.72,9.1,0,1.48.1,2.95.36,4.41.29,1.6.9,3.14,1.12,4.75,0,.06.06,1.04.37.4.01-.03-.24-.72-.24-.7-.18-.69-.14-1.43-.32-2.12-.29-1.1-.96-2.03-1.8-2.78-.79-.72-1.82-1.28-2.45-2.16-.71-1-.76-2.01-1.81-2.8-1-.75-2.17.3-2.26,1.3-.26,3.04-.34,6.09-.2,9.13.03.72.08,1.44.14,2.16,0,.07,0,.74.05.77l.55-.38-.25-.26c-.24-.69-.61-1.27-.77-2s-.2-1.49-.17-2.25c.07-1.93-2.93-1.93-3,0-.08,2.04.31,4.44,1.6,6.09,1.11,1.43,3.45,2.22,4.61.35.49-.8.44-1.67.37-2.56-.09-1.2-.15-2.4-.17-3.6-.05-2.49.04-4.97.26-7.45l-2.26,1.3c.08.06.17.58.23.73.15.36.31.7.52,1.03.39.59.88,1.08,1.42,1.53.92.77,2.16,1.45,2.51,2.67.48,1.62.19,3.33,1.75,4.46,1.09.79,2.77.8,3.72-.24,1.15-1.25.58-3.3.23-4.76-.48-1.98-.99-3.83-1.06-5.87-.13-3.7.33-7.43-.85-11.02-.6-1.82-3.4-1.08-2.89.8.14.52.12.82-.04,1.32l1.45-1.1-.21.02,1.06.44c.25.2.2-.46.23-.64.06-.4.11-.81.17-1.21.11-.81.22-1.61.33-2.42.19-1.34.57-2.8.51-4.16s-.98-2.5-1.33-3.79c-.39-1.4-.43-2.85-.17-4.28.36-1.89-2.53-2.7-2.89-.8h0Z"/><path class="cls-1" d="M508.16,476.82c-1.17.82-2.32,1.72-2.81,3.12-.25.71-.25,1.48-.25,2.22,0,.35,0,.7-.05,1.05-.02.16-.05.32-.09.48-.02.12-.05.24-.08.35-.11.35.07.22.54-.39h.8l-.13-.04,1.05,1.05c-.08-.56-.05-1.16.05-1.72h-2.89c.29.71.51,1.45.55,2.21s-.15,1.52-.07,2.27c.21,2.1,2.45,2.51,4.11,3.15,1.05.4,2.2-.82,1.85-1.85-.77-2.21-.29-4.49,1.28-6.23s3.49-2.81,5.32-4.09l-2.2-.9c.22.64.05,1.25-.09,1.91-.2.93-.32,1.84-.15,2.79.14.8.42,1.53.44,2.35.02.87-.13,1.68-.43,2.5-.27.76.31,1.64,1.05,1.85.84.23,1.57-.28,1.85-1.05.7-1.91,1.39-3.82,2.09-5.72.35-.97.73-2.01.15-2.99s-1.84-1.31-2.85-.78c-1.71.9-.2,3.49,1.51,2.59l.13-.07-.76.2c-.43-.09-.67-.35-.72-.79-.04.15-.08.29-.14.43-.11.33-.24.65-.35.97-.21.57-.41,1.14-.62,1.7-.44,1.22-.89,2.44-1.33,3.65l2.89.8c.71-1.98.6-3.96.08-5.97-.19-.75.01-1.43.16-2.18.2-.99.32-2.01-.02-2.99-.29-.84-1.36-1.49-2.2-.9-2.18,1.53-4.61,2.9-6.3,5.01-1.98,2.46-2.73,5.67-1.67,8.7l1.85-1.85c-.31-.12-.62-.24-.93-.36-.27-.1-.76-.41-1.05-.4-.27,0-.05-.13-.06.03,0,.07.06.37.12.19.08-.24.06-.67.08-.93.11-1.37-.12-2.79-.64-4.07-.25-.62-.73-1.1-1.45-1.1-.61,0-1.33.46-1.45,1.1-.2,1.13-.2,2.18-.05,3.31.07.5.6.92,1.05,1.05,2.33.64,2.76-2.39,2.81-3.99.02-.65-.12-1.38.26-1.94.32-.48.85-.84,1.33-1.17.66-.47.97-1.31.54-2.05-.38-.65-1.39-1.01-2.05-.54h0Z"/><path class="cls-1" d="M508.84,491.83c-1.37,3.02-2.98,5.92-4.81,8.69l2.74.36c.09.3-.15.39.19.07.14-.13.28-.33.38-.5.23-.4.37-.88.38-1.34,0-1-.57-1.64-1.45-1.98-.63-.25-1.36.17-1.69.69-1.46,2.25-2.73,4.61-3.79,7.08-.51,1.18.33,2.52,1.69,2.2,4.83-1.13,9.96-3.52,13.43-7.15,1.42-1.48,1.88-4.6-.86-4.91-1.09-.12-1.98.44-2.74,1.16-.38.36-.4.59-.71.43-.38-.21-.61-.96-.75-1.33-.58-1.6-2.82-1.32-2.95.4-.26,3.5-.12,7.45-2.29,10.4l2.36-.3c-.52-.64.18-2,.37-2.64.35-1.13.49-2.16.26-3.32l-2.89.8c.95,3.9,1.03,7.93.21,11.86l2.74-.36c-1.04-1.71-1.24-3.58-.63-5.49h-2.89c.31,1.53-.34,3.06-.6,4.55s-.13,2.86.23,4.33.46,2.74-.16,4.15-1.61,2.55-2.64,3.63l2.51.66c-.9-3.35-1.28-6.76-1.14-10.23l-1.5,1.5c1.19-.15,1.86,1.76,2.4,2.58.9,1.38,2.01,2.58,3.32,3.57.21.16.6.54.86.63.24.35.33.31.27-.13.15-.38.06-.47-.26-.26-.62.04-1.46.62-1.95.96-1.31.89-2.36,2.1-3.02,3.54-.36.78-.15,2.04.9,2.2,2.34.37,4.4-.45,6.19-1.96.52-.43,4.11-4.61,4.6-4.19.97.85,2.53.28,2.56-1.06.16-6.52.32-13.04.48-19.55l-2.8.76c2.52,3.26,2.16,7.42,1.96,11.29-.11,2.16-.09,4.28.23,6.42.26,1.72.74,3.82-.67,5.17-1.21,1.16.37,3.3,1.82,2.36,5.97-3.91,4.6-11.74,3.99-17.78-.34-3.42-.67-6.81-2.28-9.92-1.45-2.79-3.64-5.14-5.76-7.42-1.32-1.41-3.44.71-2.12,2.12,1.83,1.96,3.68,3.93,5,6.27,1.48,2.62,1.81,5.52,2.11,8.47.48,4.72,2.38,12.49-2.46,15.66l1.82,2.36c1.5-1.44,1.96-3.5,1.8-5.51-.09-1.19-.36-2.35-.48-3.54-.13-1.39-.09-2.78-.02-4.17.21-4.52.6-9.49-2.34-13.3-.87-1.12-2.76-.86-2.8.76-.16,6.52-.32,13.04-.48,19.55l2.56-1.06c-1.95-1.72-4.26-.44-5.83,1.12s-3.61,4.68-6.28,4.25l.9,2.2c.4-.87.92-1.65,1.68-2.26s1.61-.79,2.44-1.22c2.06-1.08,1.56-3.36-.04-4.58-1.72-1.31-2.9-2.64-4.03-4.47-.93-1.5-2.29-3.11-4.25-2.86-.83.11-1.46.6-1.5,1.5-.15,3.72.28,7.43,1.24,11.03.29,1.07,1.73,1.48,2.51.66,2.34-2.45,4.44-5.5,3.92-9.06-.27-1.85-.82-3.32-.41-5.2s.8-3.47.43-5.31c-.31-1.53-2.47-1.31-2.89,0-.85,2.63-.5,5.44.93,7.8.63,1.04,2.47.95,2.74-.36.93-4.47.87-9.01-.21-13.45-.46-1.89-3.26-1.08-2.89.8.26,1.29-.69,2.7-.83,3.99s.18,2.31.97,3.3c.67.82,1.84.39,2.36-.3,2.49-3.39,2.41-7.91,2.7-11.92l-2.95.4c.59,1.61,1.64,3.53,3.57,3.66.94.06,1.75-.36,2.44-.97.1-.09.87-.71.87-.79l-.7-.72-.1.21c-.18.1-.37.44-.53.59-3.28,3.07-7.49,5.11-11.85,6.13l1.69,2.2c1.06-2.47,2.33-4.82,3.79-7.08l-1.69.69-.72-1.08c-.09.09-.17.18-.24.28-.2.15-.4.51-.5.73-.27.56-.3,1.14-.12,1.73.38,1.28,2.03,1.43,2.74.36,1.83-2.77,3.44-5.67,4.81-8.69.79-1.74-1.79-3.27-2.59-1.51h0Z"/><path class="cls-1" d="M507.64,528.21c.87,5.16-.11,10.55-.66,15.7s-1.15,10.72-1.73,16.08h3c.26-4.7.32-9.4.2-14.1-.05-1.75-2.37-1.96-2.95-.4-.26.7-.52,1.4-.78,2.1-.11.3-.91,1.94-.78,2.1l1.27.23-.16-.16c-.08-.17-.28-.35-.41-.48-.28-.3-.59-.57-.97-.75-1.01-.47-2.11-.14-2.83.68-.9,1.03-.71,2.4-.25,3.57.57,1.46,3.02,1.42,2.95-.4-.11-2.7-.18-5.4-.21-8.1-.02-2.26-.46-5.19.54-7.3l-2.8-.76c-.31,3.78.47,7.53.53,11.31s-.34,7.85-.74,11.75l2.8-.76c-.2-.42-.12-.72.04-1.14l-2.95-.4c.06,4.07.61,8.12,1.65,12.05.2.74,1.08,1.32,1.85,1.05,1.59-.56,2.58-1.73,3.12-3.31.62-1.81.19-3.74.55-5.58l-2.51.66c1.74,1.53,2.74,3.48,3.05,5.77l2.74-1.16c-1.08-2.21-1.06-4.82.03-7.02l-2.36.3c1.46,1.21,2,3.18,3.72,4.15,1.46.82,3.43.87,4.57-.49.42-.5.61-1.22.23-1.82l-1.04-1.64c-.81-1.28-2.73-.73-2.8.76s.07,3.08.39,4.6c.36,1.75,2.82,1.2,2.95-.4.25-3.28-.62-6.54-.73-9.81s.25-6.77,1.03-10.08l-2.2.9c.25.16.27.93.32,1.2.13.79.25,1.58.38,2.37.24,1.5.48,3,.73,4.5.31,1.9,3.2,1.09,2.89-.8s-.64-3.95-.95-5.92c-.25-1.55-.42-3.03-1.85-3.94-.8-.51-1.99-.02-2.2.9-.8,3.4-1.21,6.9-1.14,10.39s1,6.86.74,10.29l2.95-.4c-.26-1.27-.34-2.51-.28-3.8l-2.8.76,1.04,1.64.23-1.82c-.55.66-1.49-.38-1.83-.84-.71-.98-1.27-2.03-2.22-2.82-.69-.57-1.89-.63-2.36.3-1.6,3.23-1.6,6.81-.03,10.05.81,1.68,2.95.37,2.74-1.16-.37-2.75-1.75-5.26-3.82-7.09-.78-.69-2.27-.52-2.51.66-.27,1.38-.21,2.74-.29,4.14-.05.92-.28,2.3-1.28,2.66l1.85,1.05c-.98-3.69-1.49-7.44-1.55-11.26-.02-1.75-2.38-1.95-2.95-.4-.43,1.19-.27,2.33.27,3.45.71,1.48,2.66.57,2.8-.76.4-3.9.8-7.82.74-11.75s-.83-7.53-.53-11.31c.12-1.46-2.17-2.08-2.8-.76-1.16,2.45-.97,5.18-.96,7.83.01,3.03.08,6.06.21,9.09l2.95-.4c-.11-.26-.21-.54-.29-.81-.76-.18-1.02-.14-.76.13.05.21.49.59.65.74.59.55,1.38.8,2.15.52,1.11-.4,1.39-1.54,1.76-2.54.46-1.25.93-2.49,1.39-3.74l-2.95-.4c.13,4.7.06,9.41-.2,14.1-.11,1.96,2.8,1.88,3,0,.59-5.52,1.19-11.05,1.78-16.57s1.41-10.68.51-16.01c-.32-1.9-3.21-1.09-2.89.8h0Z"/><path class="cls-1" d="M523.6,552.28c-.89-3.21-1.39-6.5-1.48-9.83-.07-2.77.58-5.94-1.93-7.85-1.21-.92-2.85.86-2.05,2.05.75,1.12,1.5,2.24,2.24,3.37,1.07,1.6,3.66.1,2.59-1.51-.75-1.12-1.5-2.24-2.24-3.37l-2.05,2.05c.59.45.47,1.78.46,2.4-.02,1.49-.05,2.96.05,4.45.19,3.05.7,6.08,1.51,9.03.51,1.86,3.41,1.07,2.89-.8h0Z"/><path class="cls-1" d="M518.62,552.61c.62,1.94,1.19,3.9,1.69,5.87.18.73.75,2.11.62,2.76-.06.31-.53.77-.69,1.06-.19.34-.34.7-.49,1.06-1.31,3.19-.96,6.73-1.82,10.02-.49,1.87,2.4,2.67,2.89.8.89-3.38.31-7.4,2.09-10.5.44-.78,1.05-1.4,1.05-2.35,0-1.01-.38-2.08-.61-3.05-.53-2.18-1.15-4.33-1.84-6.47-.59-1.83-3.49-1.05-2.89.8h0Z"/><path class="cls-1" d="M503.39,562.38l-1.13,9.91-.55,4.83c-.17,1.51-.1,3.36-.87,4.7l2.36-.3c-.57-.46.36-2.46.41-3.15.09-1.3-.35-2.53-1.53-3.19-.93-.52-2.34.12-2.26,1.3.44,6.09.56,12.2.32,18.31-.1,2.66-.31,5.43.54,7.99.66,2.01,2.36,4.44,4.8,3.24.91-.45,1.5-1.27,2.05-2.09.76-1.12,1.65-2.24,2.28-3.44s.44-2.18.21-3.4c-.28-1.49-.19-3.04-.17-4.55s.03-2.9.04-4.34c0-.72.01-1.45.02-2.17,0-.5-.1-1.26.15-1.72.2-.36.2-.37.55-.04.39.37.57,1.19.74,1.67.45,1.3.87,2.61,1.23,3.94.84,3.08,1.38,6.26,1.13,9.47s-1.92,5.92-1.29,9.02c.17.81,1.1,1.23,1.85,1.05,1.23-.29,2.04-1.35,2.17-2.58.14-1.39-.61-2.55-1.71-3.33-2.61-1.84-6.34-2.08-9.4-2.41l.4,2.95c.47-.09,1.37,6.66,1.49,7.36.16.99,1.43,1.32,2.2.9,1.27-.71,1.86-1.81,2.05-3.22.25-1.91-2.76-1.89-3,0-.04.32-.31.49-.56.63l2.2.9c-.36-2.2-.53-4.59-1.15-6.73-.55-1.88-2.03-3.1-4.03-2.73-1.8.33-1.15,2.78.4,2.95,1.8.2,3.59.42,5.34.91.76.22,1.61.45,2.27.89.21.14.35.29.51.48.2.23-.2.2.04.15l1.85,1.05c-.27-1.32.26-2.61.62-3.86.39-1.35.64-2.73.76-4.14.23-2.69-.08-5.41-.63-8.04s-1.29-5.38-2.38-7.85c-.88-1.98-3.17-3.58-5.23-2.11-1.93,1.38-1.55,4.34-1.57,6.39-.03,2.9-.29,5.92.06,8.81.07.55.38,1.35.33,1.89-.05.51-.43.92-.71,1.33-.38.56-.76,1.12-1.13,1.69-.24.35-.67,1.33-1.11,1.52-.3.13.21.23-.19,0-.1-.05-.3-.51-.32-.57-.25-.52-.4-1.11-.52-1.67-.3-1.43-.27-2.91-.22-4.36.21-6.72.23-13.4-.25-20.11l-2.26,1.3c.34.19-.42,2.24-.49,2.75-.16,1.16.06,2.35,1,3.12.73.6,1.84.6,2.36-.3.8-1.4.91-2.95,1.09-4.52l.63-5.56,1.24-10.88c.22-1.92-2.78-1.9-3,0h0Z"/><path class="cls-1" d="M521.86,605.67c1.24-10.34,1.67-20.76,1.28-31.16-.07-1.92-3.07-1.93-3,0,.39,10.41-.04,20.82-1.28,31.16-.23,1.91,2.77,1.9,3,0h0Z"/><path class="cls-1" d="M502.87,567.35c-.84.88-1.11,1.98-1.26,3.15-.13,1.03-.2,2.07-.3,3.1-.03.36.19.81.44,1.06.26.26.69.46,1.06.44s.79-.14,1.06-.44.4-.64.44-1.06c.1-1.07.17-2.16.32-3.22l-.05.4c.05-.34.11-.67.22-.99s-.1.2-.03.06c.04-.07.07-.14.11-.21s.08-.13.13-.2c.07-.09.03-.04-.11.15.03-.04.07-.08.11-.12.54-.57.61-1.56,0-2.12s-1.54-.61-2.12,0h0Z"/><path class="cls-1" d="M506.31,614.47c-1.46,2.13-3.09,4.57-3.71,7.11-.33,1.35-.16,2.69-.17,4.07s-.3,2.77-.86,4.05l2.36-.3c-1.01-1.2-2.25-2.01-3.69-2.6-1.32-.54-2.22,1.17-1.69,2.2,1.45,2.9,2.91,5.79,4.36,8.69.67,1.33,1.3,2.6,1.41,4.11.11,1.63.07,3.26.25,4.9.33,3.11.96,6.18,1.12,9.3.07,1.43-.13,2.84-.09,4.26.03,1.18.44,2.27,1.52,2.85,1.7.92,3.22-1.67,1.51-2.59-.04-.02-.02-.72,0-1.03.05-.7.1-1.39.1-2.09,0-1.48-.13-2.95-.31-4.42-.37-3.02-.95-6.03-1.04-9.08-.04-1.43.01-2.88-.37-4.27-.35-1.28-1.01-2.48-1.6-3.66-1.42-2.82-2.84-5.65-4.26-8.47l-1.69,2.2c.96.39,1.71,1.04,2.37,1.83.58.68,1.99.54,2.36-.3.52-1.19.92-2.37,1.11-3.66.21-1.43.03-2.81.1-4.24.11-2.58,2.12-5.26,3.53-7.33,1.09-1.6-1.51-3.1-2.59-1.51h0Z"/><path class="cls-1" d="M510.5,658.68c-.14-1.47-.19-2.94-.13-4.41l-1.9,1.45c-.39-.12-.64-.35-.74-.69.02.06.03.11.04.17-.03-.24-.04-.27-.02-.09,0,.08,0,.15,0,.23,0,.27,0,.53-.03.8,0,.08-.02.15-.03.23.03-.21.03-.23,0-.05-.03.15-.05.31-.08.46-.05.29-.11.57-.16.86-.23,1.3-.41,2.68.09,3.95.29.73,1.02,1.32,1.85,1.05.71-.23,1.35-1.06,1.05-1.85-.06-.16-.12-.31-.16-.48-.02-.07-.03-.15-.05-.22-.05-.2.02.28,0,.07-.02-.32-.03-.63,0-.94,0-.09.02-.19.03-.28,0-.04.03-.3,0-.08s0-.04.02-.08c.01-.08.02-.15.04-.23.06-.34.13-.69.19-1.03.13-.73.25-1.49.23-2.23-.01-.37-.03-.78-.16-1.13-.24-.67-.67-1.05-1.32-1.32-.43-.18-.97,0-1.31.27-.38.29-.57.7-.59,1.18-.06,1.47-.01,2.94.13,4.41.08.78.64,1.54,1.5,1.5.75-.03,1.58-.66,1.5-1.5h0Z"/><path class="cls-1" d="M510.97,639.22c-1.76-2.46-2.01-5.44-1.99-8.38.03-3.25.04-6.66,1.21-9.74l-2.74.36c.54,1,.35,2.29.3,3.39-.07,1.43-.18,2.85-.32,4.27-.29,2.83-.7,5.65-1.11,8.47l2.95.4c-.04-2.79-.09-5.58-.13-8.37-.01-.9-.96-1.8-1.9-1.45-1.79.68-2.67,2.19-3.31,3.91-.31.83-.25,1.59.06,2.4.42,1.09.84,2.17,1.27,3.25.29.75,1.01,1.28,1.85,1.05.72-.2,1.34-1.09,1.05-1.85-.27-.68-.53-1.37-.8-2.05-.18-.46-.67-1.2-.66-1.68.01-.59.78-1.92,1.35-2.14l-1.9-1.45c.04,2.79.09,5.58.13,8.37.03,1.62,2.69,2.13,2.95.4.47-3.21.94-6.41,1.25-9.64.16-1.61.28-3.22.33-4.83.04-1.39-.07-2.72-.75-3.97s-2.31-.77-2.74.36c-1.29,3.4-1.31,7.26-1.32,10.85,0,3.33.42,6.81,2.4,9.58.47.66,1.31.98,2.05.54.65-.38,1.01-1.39.54-2.05h0Z"/><path class="cls-1" d="M517.69,656.46c-.91-8.41,2.18-16.56,2.15-24.95l-2.56,1.06c1.03,1.19,1.21,2.74.71,4.2s1.46,2.35,2.51,1.46c1.36-1.16,1.57-2.86,2.02-4.48.53-1.89,1.43-3.67,2.64-5.22.72-.92.47-2.09-.66-2.51-1.5-.55-2.99-1.11-4.49-1.66-.72-.27-1.7.3-1.85,1.05-.26,1.31.35,2.64,1.77,2.9,1.23.23,2.41-1,1.69-2.2-1.33-2.25-1.6-4.5-1.71-7.06-.09-2.15-.42-4.2-1.93-5.83-1.31-1.42-3.43.7-2.12,2.12s1.01,3.76,1.12,5.56c.14,2.4.82,4.66,2.05,6.72l1.69-2.2.33.79-1.85,1.05c1.5.55,2.99,1.11,4.49,1.66l-.66-2.51c-1.19,1.52-2.14,3.12-2.86,4.92-.34.85-.58,1.72-.8,2.6-.2.82-.33,1.6-1.01,2.18l2.51,1.46c.86-2.5.23-5.14-1.48-7.12-.87-1.01-2.56-.18-2.56,1.06.03,8.38-3.06,16.53-2.15,24.95.21,1.9,3.21,1.92,3,0h0Z"/><path class="cls-1" d="M526.9,626.13c-.72-.78-1.78-.89-2.76-.63-.86.23-1.71.49-2.57.7s-1.54.71-2.24,1.28c-.66.53-1.37,1.01-1.75,1.8-.77,1.6-.6,3.7-.62,5.43,0,.87-.07,1.78.1,2.64.16.78.61,1.47.73,2.26s1.13,1.24,1.85,1.05c.86-.24,1.17-1.04,1.05-1.85-.09-.6-.36-1.12-.57-1.69s-.17-1.1-.17-1.69c0-1.34-.04-2.72.13-4.05.07-.55.11-.76.52-1.09s.88-.79,1.31-1.03c.46-.26,1.16-.32,1.69-.47.34-.09.68-.2,1.02-.3.05-.02.4-.09.42-.13.02-.05-.1.06-.26-.11.55.59,1.56.56,2.12,0,.59-.59.55-1.53,0-2.12h0Z"/><path class="cls-1" d="M508.79,617.88c-.36.08-.69.22-1.03.36-.22.1-.44.21-.64.35l-.3.23c-.15.14-.25.3-.31.48-.07.12-.1.24-.1.38-.04.2-.04.4.03.6l.15.36.23.3c.14.15.3.25.48.31.18.09.37.14.58.13.19.01.38.02.57.03.21,0,.4-.04.58-.13.19-.06.35-.16.48-.31.15-.14.25-.3.31-.48.09-.18.14-.37.13-.58l-.05-.4c-.07-.25-.2-.47-.39-.66l-.3-.23c-.23-.14-.49-.2-.76-.2-.19-.01-.38-.02-.57-.03l.76,2.8c.21-.14.43-.26.66-.36l-.36.15c.21-.09.43-.16.65-.2.2-.05.37-.14.51-.27.16-.11.29-.25.39-.42.11-.17.17-.36.18-.56.04-.2.04-.4-.03-.6l-.15-.36c-.13-.23-.31-.4-.54-.54l-.36-.15c-.27-.07-.53-.07-.8,0h0Z"/><path class="cls-1" d="M504.81,454.9c.28.63.58,1.26.9,1.87.13.24.41.45.67.52s.63.04.87-.11.45-.39.52-.67c.07-.3.03-.59-.11-.87-.32-.62-.62-1.24-.9-1.87-.07-.13-.17-.24-.29-.32-.11-.1-.24-.17-.38-.2-.27-.07-.63-.04-.87.11s-.45.39-.52.67l-.04.3c0,.2.05.39.15.57h0Z"/><path class="cls-1" d="M516.92,451.15c-.36-.02-.74.15-1,.4-.22.21-.33.45-.44.73-.1.26-.16.53-.22.8-.16.8-.16,1.65.29,2.37.15.24.39.44.67.52s.63.04.87-.11.45-.39.52-.67.05-.61-.11-.87c-.04-.07-.08-.14-.12-.22l.11.27c-.05-.13-.08-.26-.1-.39l.04.3c-.03-.22-.02-.45.01-.67l-.04.3c.05-.34.12-.7.25-1.02l-.11.27c.02-.05.05-.11.09-.16l-.18.23s.06-.07.09-.09l-.23.18s.03-.02.05-.03l-.27.11s.04-.01.06-.02l-.3.04s.04,0,.06,0c.28.02.6-.14.8-.33s.34-.52.33-.8c-.03-.64-.49-1.09-1.12-1.12h0Z"/><path class="cls-1" d="M514.3,372.23c.08.6.08,1.21,0,1.8l.04-.3c0,.06-.02.13-.03.19-.05.15-.05.3-.02.45,0,.15.05.29.13.42.14.23.4.46.67.52.29.07.61.05.87-.11.23-.15.47-.39.52-.67.12-.76.17-1.52.07-2.29,0-.15-.03-.3-.1-.43-.05-.14-.12-.26-.23-.36-.2-.2-.52-.34-.8-.33s-.59.11-.8.33c-.19.2-.37.51-.33.8h0Z"/><path class="cls-1" d="M513.56,344.75c.55,1.96,1,3.93,1.37,5.93.11.58.84.96,1.38.79.62-.2.9-.76.79-1.38-.37-2-.83-3.98-1.37-5.93-.16-.57-.8-.97-1.38-.79s-.96.78-.79,1.38h0Z"/><path class="cls-1" d="M506.8,379.31c1.09,2.27,1.08,4.9.1,7.26-.23.56.25,1.24.79,1.38.65.18,1.15-.22,1.38-.79,1.2-2.88,1.01-6.19-.33-8.99-.26-.55-1.05-.69-1.54-.4-.56.33-.67.99-.4,1.54h0Z"/><path class="cls-1" d="M514.53,377.53c-.14,3.27-1.23,6.41-.72,9.7.09.6.85.93,1.38.79.64-.18.88-.78.79-1.38-.47-3.03.67-6.09.8-9.1.03-.61-.54-1.12-1.12-1.12-.63,0-1.1.52-1.12,1.12h0Z"/><path class="cls-1" d="M507.47,445.88c.85-3.61,1.19-7.3,1.52-10.99.05-.61-.56-1.12-1.12-1.12-.65,0-1.07.52-1.12,1.12-.31,3.49-.64,6.97-1.44,10.39-.33,1.41,1.84,2.01,2.17.6h0Z"/><path class="cls-1" d="M516.05,445.11v-.15c0-.15-.03-.3-.1-.43-.05-.14-.12-.26-.23-.36-.1-.11-.22-.19-.36-.23-.13-.07-.28-.1-.43-.1l-.3.04c-.19.05-.36.15-.5.29l-.18.23c-.1.18-.15.36-.15.57v.15c0,.15.03.3.1.43.05.14.12.26.23.36.1.11.22.19.36.23.13.07.28.1.43.1l.3-.04c.19-.05.36-.15.5-.29l.18-.23c.1-.18.15-.36.15-.57h0Z"/><path class="cls-1" d="M517.01,444.01c-.09-.41-.17-.83-.23-1.25-.03-.19-.07-.38-.09-.58.03.26,0-.03-.01-.09-.01-.11-.03-.23-.04-.34-.09-.82-.14-1.65-.15-2.48,0-.59-.51-1.15-1.12-1.12s-1.13.49-1.12,1.12c.03,1.79.23,3.58.6,5.33.12.58.83.96,1.38.79.61-.2.92-.77.79-1.38h0Z"/></g></svg>